{
  "asset": {
    "version": "2.0",
    "generator": "ModelConverterX"
  },
  "extensionsUsed": [
    "ASOBO_material_day_night_switch"
  ],
  "scene": 0,
  "scenes": [
    {
      "nodes": [
        0
      ]
    }
  ],
  "nodes": [
    {
      "name": "node0",
      "children": [
        1,
        2,
        3,
        4,
        5
      ]
    },
    {
      "name": "node1",
      "mesh": 0
    },
    {
      "name": "node2",
      "mesh": 1
    },
    {
      "name": "node3",
      "mesh": 2
    },
    {
      "name": "node4",
      "mesh": 3
    },
    {
      "name": "node5",
      "mesh": 4
    }
  ],
  "meshes": [
    {
      "primitives": [
        {
          "attributes": {
            "POSITION": 0,
            "NORMAL": 1,
            "TEXCOORD_0": 2
          },
          "indices": 3,
          "mode": 4,
          "material": 4
        }
      ],
      "name": "part000"
    },
    {
      "primitives": [
        {
          "attributes": {
            "POSITION": 4,
            "NORMAL": 5,
            "TEXCOORD_0": 6
          },
          "indices": 7,
          "mode": 4,
          "material": 1
        }
      ],
      "name": "part001"
    },
    {
      "primitives": [
        {
          "attributes": {
            "POSITION": 8,
            "NORMAL": 9,
            "TEXCOORD_0": 10
          },
          "indices": 11,
          "mode": 4,
          "material": 0
        }
      ],
      "name": "part002"
    },
    {
      "primitives": [
        {
          "attributes": {
            "POSITION": 12,
            "NORMAL": 13,
            "TEXCOORD_0": 14
          },
          "indices": 15,
          "mode": 4,
          "material": 2
        }
      ],
      "name": "part003"
    },
    {
      "primitives": [
        {
          "attributes": {
            "POSITION": 16,
            "NORMAL": 17,
            "TEXCOORD_0": 18
          },
          "indices": 19,
          "mode": 4,
          "material": 3
        }
      ],
      "name": "part004"
    }
  ],
  "accessors": [
    {
      "bufferView": 1,
      "byteOffset": 0,
      "componentType": 5126,
      "count": 733,
      "type": "VEC3",
      "min": [
        -2.13319993019104,
        -2.0703198909759521,
        -1.2118200063705444
      ],
      "max": [
        4.0005497932434082,
        2.4600000381469727,
        11.428179740905762
      ]
    },
    {
      "bufferView": 2,
      "byteOffset": 0,
      "componentType": 5126,
      "count": 733,
      "type": "VEC3"
    },
    {
      "bufferView": 3,
      "byteOffset": 0,
      "componentType": 5126,
      "count": 733,
      "type": "VEC2"
    },
    {
      "bufferView": 0,
      "byteOffset": 0,
      "componentType": 5125,
      "count": 1197,
      "type": "SCALAR"
    },
    {
      "bufferView": 1,
      "byteOffset": 8796,
      "componentType": 5126,
      "count": 144,
      "type": "VEC3",
      "min": [
        1.0361499786376953,
        -0.984000027179718,
        2.7361800670623779
      ],
      "max": [
        2.3881499767303467,
        -0.91600000858306885,
        3.7761800289154053
      ]
    },
    {
      "bufferView": 2,
      "byteOffset": 8796,
      "componentType": 5126,
      "count": 144,
      "type": "VEC3"
    },
    {
      "bufferView": 3,
      "byteOffset": 5864,
      "componentType": 5126,
      "count": 144,
      "type": "VEC2"
    },
    {
      "bufferView": 0,
      "byteOffset": 4788,
      "componentType": 5125,
      "count": 288,
      "type": "SCALAR"
    },
    {
      "bufferView": 1,
      "byteOffset": 10524,
      "componentType": 5126,
      "count": 27899,
      "type": "VEC3",
      "min": [
        -2.5238499641418457,
        -2.6473898887634277,
        -1.0998200178146362
      ],
      "max": [
        5.9481501579284668,
        2.4639999866485596,
        11.428179740905762
      ]
    },
    {
      "bufferView": 2,
      "byteOffset": 10524,
      "componentType": 5126,
      "count": 27899,
      "type": "VEC3"
    },
    {
      "bufferView": 3,
      "byteOffset": 7016,
      "componentType": 5126,
      "count": 27899,
      "type": "VEC2"
    },
    {
      "bufferView": 0,
      "byteOffset": 5940,
      "componentType": 5125,
      "count": 42660,
      "type": "SCALAR"
    },
    {
      "bufferView": 1,
      "byteOffset": 345312,
      "componentType": 5126,
      "count": 96,
      "type": "VEC3",
      "min": [
        1.6761499643325806,
        0.81999999284744263,
        5.5361800193786621
      ],
      "max": [
        1.7481499910354614,
        0.89999997615814209,
        5.792180061340332
      ]
    },
    {
      "bufferView": 2,
      "byteOffset": 345312,
      "componentType": 5126,
      "count": 96,
      "type": "VEC3"
    },
    {
      "bufferView": 3,
      "byteOffset": 230208,
      "componentType": 5126,
      "count": 96,
      "type": "VEC2"
    },
    {
      "bufferView": 0,
      "byteOffset": 176580,
      "componentType": 5125,
      "count": 120,
      "type": "SCALAR"
    },
    {
      "bufferView": 1,
      "byteOffset": 346464,
      "componentType": 5126,
      "count": 32,
      "type": "VEC3",
      "min": [
        1.6481499671936035,
        0.3919999897480011,
        1.35617995262146
      ],
      "max": [
        1.7761499881744385,
        0.52399998903274536,
        1.4321800470352173
      ]
    },
    {
      "bufferView": 2,
      "byteOffset": 346464,
      "componentType": 5126,
      "count": 32,
      "type": "VEC3"
    },
    {
      "bufferView": 3,
      "byteOffset": 230976,
      "componentType": 5126,
      "count": 32,
      "type": "VEC2"
    },
    {
      "bufferView": 0,
      "byteOffset": 177060,
      "componentType": 5125,
      "count": 48,
      "type": "SCALAR"
    }
  ],
  "materials": [
    {
      "name": "material00",
      "pbrMetallicRoughness": {
        "baseColorFactor": [
          1.0,
          1.0,
          1.0,
          1.0
        ],
        "roughnessFactor": 1.0,
        "metallicFactor": 0.0,
        "baseColorTexture": {
          "index": 0
        }
      },
      "emissiveFactor": [
        0.0,
        0.0,
        0.0
      ],
      "extensions": {
        "ASOBO_material_day_night_switch": {
          "enabled": true
        }
      }
    },
    {
      "name": "material01",
      "pbrMetallicRoughness": {
        "baseColorFactor": [
          0.0,
          0.0,
          0.0,
          1.0
        ],
        "roughnessFactor": 1.0,
        "metallicFactor": 0.0
      },
      "emissiveFactor": [
        0.0,
        0.0,
        0.0
      ],
      "extensions": {
        "ASOBO_material_day_night_switch": {
          "enabled": true
        }
      }
    },
    {
      "name": "material02",
      "pbrMetallicRoughness": {
        "baseColorFactor": [
          0.60000002384185791,
          0.0,
          0.0,
          1.0
        ],
        "roughnessFactor": 1.0,
        "metallicFactor": 0.0
      },
      "emissiveFactor": [
        0.0,
        0.0,
        0.0
      ],
      "extensions": {
        "ASOBO_material_day_night_switch": {
          "enabled": true
        }
      }
    },
    {
      "name": "material03",
      "pbrMetallicRoughness": {
        "baseColorFactor": [
          0.501960813999176,
          0.501960813999176,
          0.60000002384185791,
          1.0
        ],
        "roughnessFactor": 1.0,
        "metallicFactor": 0.0
      },
      "emissiveFactor": [
        0.0,
        0.0,
        0.0
      ],
      "extensions": {
        "ASOBO_material_day_night_switch": {
          "enabled": true
        }
      }
    },
    {
      "name": "material04",
      "pbrMetallicRoughness": {
        "baseColorFactor": [
          0.800000011920929,
          0.800000011920929,
          0.800000011920929,
          1.0
        ],
        "roughnessFactor": 1.0,
        "metallicFactor": 0.0
      },
      "emissiveFactor": [
        0.0,
        0.0,
        0.0
      ],
      "extensions": {
        "ASOBO_material_day_night_switch": {
          "enabled": true
        }
      }
    }
  ],
  "textures": [
    {
      "source": 0,
      "name": "ayit"
    }
  ],
  "images": [
    {
      "uri": "ayit.png"
    }
  ],
  "bufferViews": [
    {
      "buffer": 0,
      "byteOffset": 0,
      "byteLength": 177252
    },
    {
      "buffer": 0,
      "byteOffset": 177252,
      "byteLength": 346848,
      "byteStride": 12
    },
    {
      "buffer": 0,
      "byteOffset": 524100,
      "byteLength": 346848,
      "byteStride": 12
    },
    {
      "buffer": 0,
      "byteOffset": 870948,
      "byteLength": 231232,
      "byteStride": 8
    }
  ],
  "buffers": [
    {
      "byteLength": 1102180,
      "uri": "A4.bin"
    }
  ]
}