{
  "asset": {
    "version": "2.0",
    "generator": "ModelConverterX"
  },
  "extensionsUsed": [
    "ASOBO_material_day_night_switch"
  ],
  "scene": 0,
  "scenes": [
    {
      "nodes": [
        0
      ]
    }
  ],
  "nodes": [
    {
      "name": "node0",
      "children": [
        1,
        2,
        3,
        4,
        5
      ]
    },
    {
      "name": "node1",
      "mesh": 0
    },
    {
      "name": "node2",
      "mesh": 1
    },
    {
      "name": "node3",
      "mesh": 2
    },
    {
      "name": "node4",
      "mesh": 3
    },
    {
      "name": "node5",
      "mesh": 4
    }
  ],
  "meshes": [
    {
      "primitives": [
        {
          "attributes": {
            "POSITION": 0,
            "NORMAL": 1,
            "TEXCOORD_0": 2
          },
          "indices": 3,
          "mode": 4,
          "material": 0
        }
      ],
      "name": "part000"
    },
    {
      "primitives": [
        {
          "attributes": {
            "POSITION": 4,
            "NORMAL": 5,
            "TEXCOORD_0": 6
          },
          "indices": 7,
          "mode": 4,
          "material": 4
        }
      ],
      "name": "part001"
    },
    {
      "primitives": [
        {
          "attributes": {
            "POSITION": 8,
            "NORMAL": 9,
            "TEXCOORD_0": 10
          },
          "indices": 11,
          "mode": 4,
          "material": 3
        }
      ],
      "name": "part002"
    },
    {
      "primitives": [
        {
          "attributes": {
            "POSITION": 12,
            "NORMAL": 13,
            "TEXCOORD_0": 14
          },
          "indices": 15,
          "mode": 4,
          "material": 1
        }
      ],
      "name": "part003"
    },
    {
      "primitives": [
        {
          "attributes": {
            "POSITION": 16,
            "NORMAL": 17,
            "TEXCOORD_0": 18
          },
          "indices": 19,
          "mode": 4,
          "material": 2
        }
      ],
      "name": "part004"
    }
  ],
  "accessors": [
    {
      "bufferView": 1,
      "byteOffset": 0,
      "componentType": 5126,
      "count": 7010,
      "type": "VEC3",
      "min": [
        -1.6239099502563477,
        -1.1461199522018433,
        -9.502659797668457
      ],
      "max": [
        1.6231199502944946,
        2.7252399921417236,
        7.1494002342224121
      ]
    },
    {
      "bufferView": 2,
      "byteOffset": 0,
      "componentType": 5126,
      "count": 7010,
      "type": "VEC3"
    },
    {
      "bufferView": 3,
      "byteOffset": 0,
      "componentType": 5126,
      "count": 7010,
      "type": "VEC2"
    },
    {
      "bufferView": 0,
      "byteOffset": 0,
      "componentType": 5125,
      "count": 23973,
      "type": "SCALAR"
    },
    {
      "bufferView": 1,
      "byteOffset": 84120,
      "componentType": 5126,
      "count": 503,
      "type": "VEC3",
      "min": [
        -1.3419500589370728,
        -0.706250011920929,
        -8.9829998016357422
      ],
      "max": [
        1.3419500589370728,
        1.7809699773788452,
        0.80097997188568115
      ]
    },
    {
      "bufferView": 2,
      "byteOffset": 84120,
      "componentType": 5126,
      "count": 503,
      "type": "VEC3"
    },
    {
      "bufferView": 3,
      "byteOffset": 56080,
      "componentType": 5126,
      "count": 503,
      "type": "VEC2"
    },
    {
      "bufferView": 0,
      "byteOffset": 95892,
      "componentType": 5125,
      "count": 2166,
      "type": "SCALAR"
    },
    {
      "bufferView": 1,
      "byteOffset": 90156,
      "componentType": 5126,
      "count": 7516,
      "type": "VEC3",
      "min": [
        -1.6239099502563477,
        -1.3187899589538574,
        -8.061920166015625
      ],
      "max": [
        1.6231199502944946,
        1.932979941368103,
        5.0586099624633789
      ]
    },
    {
      "bufferView": 2,
      "byteOffset": 90156,
      "componentType": 5126,
      "count": 7516,
      "type": "VEC3"
    },
    {
      "bufferView": 3,
      "byteOffset": 60104,
      "componentType": 5126,
      "count": 7516,
      "type": "VEC2"
    },
    {
      "bufferView": 0,
      "byteOffset": 104556,
      "componentType": 5125,
      "count": 22881,
      "type": "SCALAR"
    },
    {
      "bufferView": 1,
      "byteOffset": 180348,
      "componentType": 5126,
      "count": 153,
      "type": "VEC3",
      "min": [
        -0.42212998867034912,
        -0.36081001162528992,
        1.1380100250244141
      ],
      "max": [
        0.42212998867034912,
        1.2168600559234619,
        4.6930499076843262
      ]
    },
    {
      "bufferView": 2,
      "byteOffset": 180348,
      "componentType": 5126,
      "count": 153,
      "type": "VEC3"
    },
    {
      "bufferView": 3,
      "byteOffset": 120232,
      "componentType": 5126,
      "count": 153,
      "type": "VEC2"
    },
    {
      "bufferView": 0,
      "byteOffset": 196080,
      "componentType": 5125,
      "count": 456,
      "type": "SCALAR"
    },
    {
      "bufferView": 1,
      "byteOffset": 182184,
      "componentType": 5126,
      "count": 153,
      "type": "VEC3",
      "min": [
        -1.5434399843215942,
        -0.069439999759197235,
        -2.2394800186157227
      ],
      "max": [
        1.5434399843215942,
        1.9873000383377075,
        2.3819000720977783
      ]
    },
    {
      "bufferView": 2,
      "byteOffset": 182184,
      "componentType": 5126,
      "count": 153,
      "type": "VEC3"
    },
    {
      "bufferView": 3,
      "byteOffset": 121456,
      "componentType": 5126,
      "count": 153,
      "type": "VEC2"
    },
    {
      "bufferView": 0,
      "byteOffset": 197904,
      "componentType": 5125,
      "count": 528,
      "type": "SCALAR"
    }
  ],
  "materials": [
    {
      "name": "material00",
      "pbrMetallicRoughness": {
        "baseColorFactor": [
          1.0,
          1.0,
          1.0,
          1.0
        ],
        "roughnessFactor": 1.0,
        "metallicFactor": 0.0,
        "baseColorTexture": {
          "index": 0
        }
      },
      "emissiveFactor": [
        0.0,
        0.0,
        0.0
      ],
      "extensions": {
        "ASOBO_material_day_night_switch": {
          "enabled": true
        }
      }
    },
    {
      "name": "material01",
      "pbrMetallicRoughness": {
        "baseColorFactor": [
          1.0,
          1.0,
          1.0,
          0.50196078431372548
        ],
        "roughnessFactor": 1.0,
        "metallicFactor": 0.0,
        "baseColorTexture": {
          "index": 0
        }
      },
      "emissiveFactor": [
        0.0,
        0.0,
        0.0
      ],
      "extensions": {
        "ASOBO_material_day_night_switch": {
          "enabled": true
        }
      }
    },
    {
      "name": "material02",
      "pbrMetallicRoughness": {
        "baseColorFactor": [
          1.0,
          1.0,
          1.0,
          1.0
        ],
        "roughnessFactor": 1.0,
        "metallicFactor": 0.0,
        "baseColorTexture": {
          "index": 0
        }
      },
      "emissiveFactor": [
        0.0,
        0.0,
        0.0
      ],
      "alphaMode": "BLEND",
      "extensions": {
        "ASOBO_material_day_night_switch": {
          "enabled": true
        }
      }
    },
    {
      "name": "material03",
      "pbrMetallicRoughness": {
        "baseColorFactor": [
          1.0,
          1.0,
          1.0,
          1.0
        ],
        "roughnessFactor": 1.0,
        "metallicFactor": 0.0,
        "baseColorTexture": {
          "index": 1
        }
      },
      "emissiveFactor": [
        0.0,
        0.0,
        0.0
      ],
      "extensions": {
        "ASOBO_material_day_night_switch": {
          "enabled": true
        }
      }
    },
    {
      "name": "material04",
      "pbrMetallicRoughness": {
        "baseColorFactor": [
          1.0,
          1.0,
          1.0,
          1.0
        ],
        "roughnessFactor": 1.0,
        "metallicFactor": 0.0,
        "baseColorTexture": {
          "index": 2
        }
      },
      "emissiveFactor": [
        0.0,
        0.0,
        0.0
      ],
      "extensions": {
        "ASOBO_material_day_night_switch": {
          "enabled": true
        }
      }
    }
  ],
  "textures": [
    {
      "source": 0,
      "name": "ah-1s cobra_0"
    },
    {
      "source": 1,
      "name": "ah1s_main"
    },
    {
      "source": 2,
      "name": "ah1s_main2"
    }
  ],
  "images": [
    {
      "uri": "ah-1s cobra_0.png"
    },
    {
      "uri": "ah1s_main.png"
    },
    {
      "uri": "ah1s_main2.png"
    }
  ],
  "bufferViews": [
    {
      "buffer": 0,
      "byteOffset": 0,
      "byteLength": 200016
    },
    {
      "buffer": 0,
      "byteOffset": 200016,
      "byteLength": 184020,
      "byteStride": 12
    },
    {
      "buffer": 0,
      "byteOffset": 384036,
      "byteLength": 184020,
      "byteStride": 12
    },
    {
      "buffer": 0,
      "byteOffset": 568056,
      "byteLength": 122680,
      "byteStride": 8
    }
  ],
  "buffers": [
    {
      "byteLength": 690736,
      "uri": "ah-1s cobra.bin"
    }
  ]
}