{
  "asset": {
    "version": "2.0",
    "generator": "ModelConverterX"
  },
  "extensionsUsed": [
    "ASOBO_material_day_night_switch"
  ],
  "scene": 0,
  "scenes": [
    {
      "nodes": [
        0
      ]
    }
  ],
  "nodes": [
    {
      "name": "node0",
      "children": [
        1,
        2,
        3,
        4,
        5,
        6,
        7
      ]
    },
    {
      "name": "node1",
      "mesh": 0
    },
    {
      "name": "node2",
      "mesh": 1
    },
    {
      "name": "node3",
      "mesh": 2
    },
    {
      "name": "node4",
      "mesh": 3
    },
    {
      "name": "node5",
      "mesh": 4
    },
    {
      "name": "node6",
      "mesh": 5
    },
    {
      "name": "node7",
      "mesh": 6
    }
  ],
  "meshes": [
    {
      "primitives": [
        {
          "attributes": {
            "POSITION": 0,
            "NORMAL": 1,
            "TEXCOORD_0": 2
          },
          "indices": 3,
          "mode": 4,
          "material": 2
        }
      ],
      "name": "part000"
    },
    {
      "primitives": [
        {
          "attributes": {
            "POSITION": 4,
            "NORMAL": 5,
            "TEXCOORD_0": 6
          },
          "indices": 7,
          "mode": 4,
          "material": 0
        }
      ],
      "name": "part001"
    },
    {
      "primitives": [
        {
          "attributes": {
            "POSITION": 8,
            "NORMAL": 9,
            "TEXCOORD_0": 10
          },
          "indices": 11,
          "mode": 4,
          "material": 5
        }
      ],
      "name": "part002"
    },
    {
      "primitives": [
        {
          "attributes": {
            "POSITION": 12,
            "NORMAL": 13,
            "TEXCOORD_0": 14
          },
          "indices": 15,
          "mode": 4,
          "material": 3
        }
      ],
      "name": "part003"
    },
    {
      "primitives": [
        {
          "attributes": {
            "POSITION": 16,
            "NORMAL": 17,
            "TEXCOORD_0": 18
          },
          "indices": 19,
          "mode": 4,
          "material": 1
        }
      ],
      "name": "part004"
    },
    {
      "primitives": [
        {
          "attributes": {
            "POSITION": 20,
            "NORMAL": 21,
            "TEXCOORD_0": 22
          },
          "indices": 23,
          "mode": 4,
          "material": 6
        }
      ],
      "name": "part005"
    },
    {
      "primitives": [
        {
          "attributes": {
            "POSITION": 24,
            "NORMAL": 25,
            "TEXCOORD_0": 26
          },
          "indices": 27,
          "mode": 4,
          "material": 4
        }
      ],
      "name": "part006"
    }
  ],
  "accessors": [
    {
      "bufferView": 1,
      "byteOffset": 0,
      "componentType": 5126,
      "count": 398,
      "type": "VEC3",
      "min": [
        -4.9819598197937012,
        -1.3216999769210815,
        -1.7449799776077271
      ],
      "max": [
        4.9819598197937012,
        1.2704399824142456,
        4.2626399993896484
      ]
    },
    {
      "bufferView": 2,
      "byteOffset": 0,
      "componentType": 5126,
      "count": 398,
      "type": "VEC3"
    },
    {
      "bufferView": 3,
      "byteOffset": 0,
      "componentType": 5126,
      "count": 398,
      "type": "VEC2"
    },
    {
      "bufferView": 0,
      "byteOffset": 0,
      "componentType": 5125,
      "count": 1344,
      "type": "SCALAR"
    },
    {
      "bufferView": 1,
      "byteOffset": 4776,
      "componentType": 5126,
      "count": 1742,
      "type": "VEC3",
      "min": [
        -8.3347597122192383,
        -1.3216999769210815,
        -9.11478042602539
      ],
      "max": [
        8.3347597122192383,
        3.2945199012756348,
        4.3354701995849609
      ]
    },
    {
      "bufferView": 2,
      "byteOffset": 4776,
      "componentType": 5126,
      "count": 1742,
      "type": "VEC3"
    },
    {
      "bufferView": 3,
      "byteOffset": 3184,
      "componentType": 5126,
      "count": 1742,
      "type": "VEC2"
    },
    {
      "bufferView": 0,
      "byteOffset": 5376,
      "componentType": 5125,
      "count": 5934,
      "type": "SCALAR"
    },
    {
      "bufferView": 1,
      "byteOffset": 25680,
      "componentType": 5126,
      "count": 98,
      "type": "VEC3",
      "min": [
        -4.9931201934814453,
        -1.0595300197601318,
        -3.2047200202941895
      ],
      "max": [
        4.9932498931884766,
        0.70660001039505,
        3.9973099231719971
      ]
    },
    {
      "bufferView": 2,
      "byteOffset": 25680,
      "componentType": 5126,
      "count": 98,
      "type": "VEC3"
    },
    {
      "bufferView": 3,
      "byteOffset": 17120,
      "componentType": 5126,
      "count": 98,
      "type": "VEC2"
    },
    {
      "bufferView": 0,
      "byteOffset": 29112,
      "componentType": 5125,
      "count": 186,
      "type": "SCALAR"
    },
    {
      "bufferView": 1,
      "byteOffset": 26856,
      "componentType": 5126,
      "count": 36,
      "type": "VEC3",
      "min": [
        -0.35280999541282654,
        -0.14101000130176544,
        3.82807993888855
      ],
      "max": [
        0.35280999541282654,
        -0.059920001775026321,
        4.0486898422241211
      ]
    },
    {
      "bufferView": 2,
      "byteOffset": 26856,
      "componentType": 5126,
      "count": 36,
      "type": "VEC3"
    },
    {
      "bufferView": 3,
      "byteOffset": 17904,
      "componentType": 5126,
      "count": 36,
      "type": "VEC2"
    },
    {
      "bufferView": 0,
      "byteOffset": 29856,
      "componentType": 5125,
      "count": 144,
      "type": "SCALAR"
    },
    {
      "bufferView": 1,
      "byteOffset": 27288,
      "componentType": 5126,
      "count": 20,
      "type": "VEC3",
      "min": [
        -0.041009999811649323,
        -0.39691999554634094,
        -7.8312997817993164
      ],
      "max": [
        0.041009999811649323,
        3.337630033493042,
        -1.6795699596405029
      ]
    },
    {
      "bufferView": 2,
      "byteOffset": 27288,
      "componentType": 5126,
      "count": 20,
      "type": "VEC3"
    },
    {
      "bufferView": 3,
      "byteOffset": 18192,
      "componentType": 5126,
      "count": 20,
      "type": "VEC2"
    },
    {
      "bufferView": 0,
      "byteOffset": 30432,
      "componentType": 5125,
      "count": 72,
      "type": "SCALAR"
    },
    {
      "bufferView": 1,
      "byteOffset": 27528,
      "componentType": 5126,
      "count": 277,
      "type": "VEC3",
      "min": [
        -2.8561100959777832,
        -1.0684499740600586,
        -0.847320020198822
      ],
      "max": [
        2.8561100959777832,
        -0.15334999561309814,
        4.0762801170349121
      ]
    },
    {
      "bufferView": 2,
      "byteOffset": 27528,
      "componentType": 5126,
      "count": 277,
      "type": "VEC3"
    },
    {
      "bufferView": 3,
      "byteOffset": 18352,
      "componentType": 5126,
      "count": 277,
      "type": "VEC2"
    },
    {
      "bufferView": 0,
      "byteOffset": 30720,
      "componentType": 5125,
      "count": 546,
      "type": "SCALAR"
    },
    {
      "bufferView": 1,
      "byteOffset": 30852,
      "componentType": 5126,
      "count": 60,
      "type": "VEC3",
      "min": [
        -2.6898999214172363,
        -1.1208800077438354,
        -0.705780029296875
      ],
      "max": [
        2.6898999214172363,
        -0.51770001649856567,
        3.9767999649047852
      ]
    },
    {
      "bufferView": 2,
      "byteOffset": 30852,
      "componentType": 5126,
      "count": 60,
      "type": "VEC3"
    },
    {
      "bufferView": 3,
      "byteOffset": 20568,
      "componentType": 5126,
      "count": 60,
      "type": "VEC2"
    },
    {
      "bufferView": 0,
      "byteOffset": 32904,
      "componentType": 5125,
      "count": 180,
      "type": "SCALAR"
    }
  ],
  "materials": [
    {
      "name": "material00",
      "pbrMetallicRoughness": {
        "baseColorFactor": [
          1.0,
          1.0,
          1.0,
          1.0
        ],
        "roughnessFactor": 1.0,
        "metallicFactor": 0.0,
        "baseColorTexture": {
          "index": 0
        }
      },
      "emissiveFactor": [
        0.0,
        0.0,
        0.0
      ],
      "extensions": {
        "ASOBO_material_day_night_switch": {
          "enabled": true
        }
      }
    },
    {
      "name": "material01",
      "pbrMetallicRoughness": {
        "baseColorFactor": [
          0.54902,
          0.0,
          0.0,
          1.0
        ],
        "roughnessFactor": 1.0,
        "metallicFactor": 0.0
      },
      "emissiveFactor": [
        0.0,
        0.0,
        0.0
      ],
      "extensions": {
        "ASOBO_material_day_night_switch": {
          "enabled": true
        }
      }
    },
    {
      "name": "material02",
      "pbrMetallicRoughness": {
        "baseColorFactor": [
          0.039216,
          0.039216,
          0.039216,
          1.0
        ],
        "roughnessFactor": 1.0,
        "metallicFactor": 0.0
      },
      "emissiveFactor": [
        0.0,
        0.0,
        0.0
      ],
      "extensions": {
        "ASOBO_material_day_night_switch": {
          "enabled": true
        }
      }
    },
    {
      "name": "material03",
      "pbrMetallicRoughness": {
        "baseColorFactor": [
          0.278431,
          0.14902,
          0.047059,
          1.0
        ],
        "roughnessFactor": 1.0,
        "metallicFactor": 0.0
      },
      "emissiveFactor": [
        0.0,
        0.0,
        0.0
      ],
      "extensions": {
        "ASOBO_material_day_night_switch": {
          "enabled": true
        }
      }
    },
    {
      "name": "material04",
      "pbrMetallicRoughness": {
        "baseColorFactor": [
          0.290196,
          0.290196,
          0.290196,
          1.0
        ],
        "roughnessFactor": 1.0,
        "metallicFactor": 0.0
      },
      "emissiveFactor": [
        0.0,
        0.0,
        0.0
      ],
      "extensions": {
        "ASOBO_material_day_night_switch": {
          "enabled": true
        }
      }
    },
    {
      "name": "material05",
      "pbrMetallicRoughness": {
        "baseColorFactor": [
          0.439216,
          0.439216,
          0.439216,
          1.0
        ],
        "roughnessFactor": 1.0,
        "metallicFactor": 0.0
      },
      "emissiveFactor": [
        0.0,
        0.0,
        0.0
      ],
      "extensions": {
        "ASOBO_material_day_night_switch": {
          "enabled": true
        }
      }
    },
    {
      "name": "material06",
      "pbrMetallicRoughness": {
        "baseColorFactor": [
          0.784314,
          0.784314,
          0.784314,
          1.0
        ],
        "roughnessFactor": 1.0,
        "metallicFactor": 0.0
      },
      "emissiveFactor": [
        0.0,
        0.0,
        0.0
      ],
      "extensions": {
        "ASOBO_material_day_night_switch": {
          "enabled": true
        }
      }
    }
  ],
  "textures": [
    {
      "source": 0,
      "name": "b200"
    }
  ],
  "images": [
    {
      "uri": "b200.png"
    }
  ],
  "bufferViews": [
    {
      "buffer": 0,
      "byteOffset": 0,
      "byteLength": 33624
    },
    {
      "buffer": 0,
      "byteOffset": 33624,
      "byteLength": 31572,
      "byteStride": 12
    },
    {
      "buffer": 0,
      "byteOffset": 65196,
      "byteLength": 31572,
      "byteStride": 12
    },
    {
      "buffer": 0,
      "byteOffset": 96768,
      "byteLength": 21048,
      "byteStride": 8
    }
  ],
  "buffers": [
    {
      "byteLength": 117816,
      "uri": "ai beechcraft king air b200_LOD0.bin"
    }
  ]
}