{
  "asset": {
    "version": "2.0",
    "generator": "ModelConverterX"
  },
  "extensionsUsed": [
    "ASOBO_material_day_night_switch"
  ],
  "scene": 0,
  "scenes": [
    {
      "nodes": [
        0
      ]
    }
  ],
  "nodes": [
    {
      "name": "node0",
      "children": [
        1,
        2,
        3
      ]
    },
    {
      "name": "node1",
      "mesh": 0
    },
    {
      "name": "node2",
      "mesh": 1
    },
    {
      "name": "node3",
      "mesh": 2
    }
  ],
  "meshes": [
    {
      "primitives": [
        {
          "attributes": {
            "POSITION": 0,
            "NORMAL": 1,
            "TEXCOORD_0": 2
          },
          "indices": 3,
          "mode": 4,
          "material": 2
        }
      ],
      "name": "part000"
    },
    {
      "primitives": [
        {
          "attributes": {
            "POSITION": 4,
            "NORMAL": 5,
            "TEXCOORD_0": 6
          },
          "indices": 7,
          "mode": 4,
          "material": 0
        }
      ],
      "name": "part001"
    },
    {
      "primitives": [
        {
          "attributes": {
            "POSITION": 8,
            "NORMAL": 9,
            "TEXCOORD_0": 10
          },
          "indices": 11,
          "mode": 4,
          "material": 1
        }
      ],
      "name": "part002"
    }
  ],
  "accessors": [
    {
      "bufferView": 1,
      "byteOffset": 0,
      "componentType": 5126,
      "count": 6813,
      "type": "VEC3",
      "min": [
        -10.607999801635742,
        5.1441898345947266,
        -15.26056957244873
      ],
      "max": [
        10.600000381469727,
        13.684989929199219,
        9.3249797821044922
      ]
    },
    {
      "bufferView": 2,
      "byteOffset": 0,
      "componentType": 5126,
      "count": 6813,
      "type": "VEC3"
    },
    {
      "bufferView": 3,
      "byteOffset": 0,
      "componentType": 5126,
      "count": 6813,
      "type": "VEC2"
    },
    {
      "bufferView": 0,
      "byteOffset": 0,
      "componentType": 5125,
      "count": 22092,
      "type": "SCALAR"
    },
    {
      "bufferView": 1,
      "byteOffset": 81756,
      "componentType": 5126,
      "count": 182,
      "type": "VEC3",
      "min": [
        -1.3869999647140503,
        5.9775500297546387,
        -3.9137198925018311
      ],
      "max": [
        1.3250000476837158,
        8.5346498489379883,
        6.5425100326538086
      ]
    },
    {
      "bufferView": 2,
      "byteOffset": 81756,
      "componentType": 5126,
      "count": 182,
      "type": "VEC3"
    },
    {
      "bufferView": 3,
      "byteOffset": 54504,
      "componentType": 5126,
      "count": 182,
      "type": "VEC2"
    },
    {
      "bufferView": 0,
      "byteOffset": 88368,
      "componentType": 5125,
      "count": 708,
      "type": "SCALAR"
    },
    {
      "bufferView": 1,
      "byteOffset": 83940,
      "componentType": 5126,
      "count": 264,
      "type": "VEC3",
      "min": [
        -2.9470000267028809,
        5.4042501449584961,
        -13.140839576721191
      ],
      "max": [
        2.8940000534057617,
        11.566499710083008,
        6.4071698188781738
      ]
    },
    {
      "bufferView": 2,
      "byteOffset": 83940,
      "componentType": 5126,
      "count": 264,
      "type": "VEC3"
    },
    {
      "bufferView": 3,
      "byteOffset": 55960,
      "componentType": 5126,
      "count": 264,
      "type": "VEC2"
    },
    {
      "bufferView": 0,
      "byteOffset": 91200,
      "componentType": 5125,
      "count": 528,
      "type": "SCALAR"
    }
  ],
  "materials": [
    {
      "name": "material00",
      "pbrMetallicRoughness": {
        "baseColorFactor": [
          0.8,
          0.8,
          0.8,
          0.4
        ],
        "roughnessFactor": 1.0,
        "metallicFactor": 0.0
      },
      "emissiveFactor": [
        0.0,
        0.0,
        0.0
      ],
      "alphaMode": "BLEND",
      "extensions": {
        "ASOBO_material_day_night_switch": {
          "enabled": true
        }
      }
    },
    {
      "name": "material01",
      "pbrMetallicRoughness": {
        "baseColorFactor": [
          0.8,
          0.8,
          0.8,
          1.0
        ],
        "roughnessFactor": 1.0,
        "metallicFactor": 0.0
      },
      "emissiveFactor": [
        0.0,
        0.0,
        0.0
      ],
      "extensions": {
        "ASOBO_material_day_night_switch": {
          "enabled": true
        }
      }
    },
    {
      "name": "material02",
      "pbrMetallicRoughness": {
        "baseColorFactor": [
          1.0,
          1.0,
          1.0,
          1.0
        ],
        "roughnessFactor": 1.0,
        "metallicFactor": 0.0,
        "baseColorTexture": {
          "index": 0
        }
      },
      "emissiveFactor": [
        0.0,
        0.0,
        0.0
      ],
      "extensions": {
        "ASOBO_material_day_night_switch": {
          "enabled": true
        }
      }
    }
  ],
  "textures": [
    {
      "source": 0,
      "name": "mbai ch53"
    }
  ],
  "images": [
    {
      "uri": "mbai ch53.png"
    }
  ],
  "bufferViews": [
    {
      "buffer": 0,
      "byteOffset": 0,
      "byteLength": 93312
    },
    {
      "buffer": 0,
      "byteOffset": 93312,
      "byteLength": 87108,
      "byteStride": 12
    },
    {
      "buffer": 0,
      "byteOffset": 180420,
      "byteLength": 87108,
      "byteStride": 12
    },
    {
      "buffer": 0,
      "byteOffset": 267528,
      "byteLength": 58072,
      "byteStride": 8
    }
  ],
  "buffers": [
    {
      "byteLength": 325600,
      "uri": "CH53_LOD0.bin"
    }
  ]
}