{
  "asset": {
    "version": "2.0",
    "generator": "ModelConverterX"
  },
  "extensionsUsed": [
    "ASOBO_material_day_night_switch"
  ],
  "scene": 0,
  "scenes": [
    {
      "nodes": [
        0
      ]
    }
  ],
  "nodes": [
    {
      "name": "node0",
      "children": [
        1,
        2,
        3,
        4
      ]
    },
    {
      "name": "node1",
      "mesh": 0
    },
    {
      "name": "node2",
      "mesh": 1
    },
    {
      "name": "node3",
      "mesh": 2
    },
    {
      "name": "node4",
      "mesh": 3
    }
  ],
  "meshes": [
    {
      "primitives": [
        {
          "attributes": {
            "POSITION": 0,
            "NORMAL": 1,
            "TEXCOORD_0": 2
          },
          "indices": 3,
          "mode": 4,
          "material": 1
        }
      ],
      "name": "part000"
    },
    {
      "primitives": [
        {
          "attributes": {
            "POSITION": 4,
            "NORMAL": 5,
            "TEXCOORD_0": 6
          },
          "indices": 7,
          "mode": 4,
          "material": 0
        }
      ],
      "name": "part001"
    },
    {
      "primitives": [
        {
          "attributes": {
            "POSITION": 8,
            "NORMAL": 9,
            "TEXCOORD_0": 10
          },
          "indices": 11,
          "mode": 4,
          "material": 2
        }
      ],
      "name": "part002"
    },
    {
      "primitives": [
        {
          "attributes": {
            "POSITION": 12,
            "NORMAL": 13,
            "TEXCOORD_0": 14
          },
          "indices": 15,
          "mode": 4,
          "material": 3
        }
      ],
      "name": "part003"
    }
  ],
  "accessors": [
    {
      "bufferView": 1,
      "byteOffset": 0,
      "componentType": 5126,
      "count": 27596,
      "type": "VEC3",
      "min": [
        -62.788330078125,
        1.028480052947998,
        -114.57511901855469
      ],
      "max": [
        63.047000885009766,
        52.144569396972656,
        79.998497009277344
      ]
    },
    {
      "bufferView": 2,
      "byteOffset": 0,
      "componentType": 5126,
      "count": 27596,
      "type": "VEC3"
    },
    {
      "bufferView": 3,
      "byteOffset": 0,
      "componentType": 5126,
      "count": 27596,
      "type": "VEC2"
    },
    {
      "bufferView": 0,
      "byteOffset": 0,
      "componentType": 5125,
      "count": 104706,
      "type": "SCALAR"
    },
    {
      "bufferView": 1,
      "byteOffset": 331152,
      "componentType": 5126,
      "count": 212,
      "type": "VEC3",
      "min": [
        -4.94651985168457,
        25.883760452270508,
        24.993759155273438
      ],
      "max": [
        5.2052102088928223,
        36.131889343261719,
        51.119548797607422
      ]
    },
    {
      "bufferView": 2,
      "byteOffset": 331152,
      "componentType": 5126,
      "count": 212,
      "type": "VEC3"
    },
    {
      "bufferView": 3,
      "byteOffset": 220768,
      "componentType": 5126,
      "count": 212,
      "type": "VEC2"
    },
    {
      "bufferView": 0,
      "byteOffset": 418824,
      "componentType": 5125,
      "count": 882,
      "type": "SCALAR"
    },
    {
      "bufferView": 1,
      "byteOffset": 333696,
      "componentType": 5126,
      "count": 108,
      "type": "VEC3",
      "min": [
        -4.88893985748291,
        31.951400756835938,
        12.313039779663086
      ],
      "max": [
        5.1476497650146484,
        36.724510192871094,
        25.448879241943359
      ]
    },
    {
      "bufferView": 2,
      "byteOffset": 333696,
      "componentType": 5126,
      "count": 108,
      "type": "VEC3"
    },
    {
      "bufferView": 3,
      "byteOffset": 222464,
      "componentType": 5126,
      "count": 108,
      "type": "VEC2"
    },
    {
      "bufferView": 0,
      "byteOffset": 422352,
      "componentType": 5125,
      "count": 486,
      "type": "SCALAR"
    },
    {
      "bufferView": 1,
      "byteOffset": 334992,
      "componentType": 5126,
      "count": 1008,
      "type": "VEC3",
      "min": [
        -28.773109436035156,
        0.0629199966788292,
        -39.396678924560547
      ],
      "max": [
        29.031829833984375,
        8.40250015258789,
        44.175689697265625
      ]
    },
    {
      "bufferView": 2,
      "byteOffset": 334992,
      "componentType": 5126,
      "count": 1008,
      "type": "VEC3"
    },
    {
      "bufferView": 3,
      "byteOffset": 223328,
      "componentType": 5126,
      "count": 1008,
      "type": "VEC2"
    },
    {
      "bufferView": 0,
      "byteOffset": 424296,
      "componentType": 5125,
      "count": 3840,
      "type": "SCALAR"
    }
  ],
  "materials": [
    {
      "name": "Glass",
      "pbrMetallicRoughness": {
        "baseColorFactor": [
          1.0,
          1.0,
          1.0,
          1.0
        ],
        "roughnessFactor": 0.7642977237701416,
        "metallicFactor": 0.0
      },
      "emissiveFactor": [
        0.0,
        0.0,
        0.0
      ],
      "doubleSided": true,
      "extensions": {
        "ASOBO_material_day_night_switch": {
          "enabled": true
        }
      }
    },
    {
      "name": "Mat",
      "pbrMetallicRoughness": {
        "baseColorFactor": [
          1.0,
          1.0,
          1.0,
          1.0
        ],
        "roughnessFactor": 0.74833887815475464,
        "metallicFactor": 0.0,
        "baseColorTexture": {
          "index": 0
        }
      },
      "emissiveFactor": [
        0.0,
        0.0,
        0.0
      ],
      "doubleSided": true,
      "extensions": {
        "ASOBO_material_day_night_switch": {
          "enabled": true
        }
      }
    },
    {
      "name": "Material.002",
      "pbrMetallicRoughness": {
        "baseColorFactor": [
          0.0,
          0.0,
          0.0,
          1.0
        ],
        "roughnessFactor": 0.5,
        "metallicFactor": 0.0
      },
      "emissiveFactor": [
        0.0,
        0.0,
        0.0
      ],
      "doubleSided": true,
      "extensions": {
        "ASOBO_material_day_night_switch": {
          "enabled": true
        }
      }
    },
    {
      "name": "tire",
      "pbrMetallicRoughness": {
        "baseColorFactor": [
          0.119999997317791,
          0.119999997317791,
          0.119999997317791,
          1.0
        ],
        "roughnessFactor": 1.0,
        "metallicFactor": 0.0
      },
      "emissiveFactor": [
        0.0,
        0.0,
        0.0
      ],
      "doubleSided": true,
      "extensions": {
        "ASOBO_material_day_night_switch": {
          "enabled": true
        }
      }
    }
  ],
  "textures": [
    {
      "source": 0,
      "name": "kurnass"
    }
  ],
  "images": [
    {
      "uri": "kurnass.png"
    }
  ],
  "bufferViews": [
    {
      "buffer": 0,
      "byteOffset": 0,
      "byteLength": 439656
    },
    {
      "buffer": 0,
      "byteOffset": 439656,
      "byteLength": 347088,
      "byteStride": 12
    },
    {
      "buffer": 0,
      "byteOffset": 786744,
      "byteLength": 347088,
      "byteStride": 12
    },
    {
      "buffer": 0,
      "byteOffset": 1133832,
      "byteLength": 231392,
      "byteStride": 8
    }
  ],
  "buffers": [
    {
      "byteLength": 1365224,
      "uri": "Kurnass.bin"
    }
  ]
}