{
  "asset": {
    "version": "2.0",
    "generator": "ModelConverterX"
  },
  "extensionsUsed": [
    "ASOBO_material_day_night_switch"
  ],
  "scene": 0,
  "scenes": [
    {
      "nodes": [
        0
      ]
    }
  ],
  "nodes": [
    {
      "name": "node0",
      "children": [
        1,
        2,
        3,
        4
      ]
    },
    {
      "name": "node1",
      "mesh": 0
    },
    {
      "name": "node2",
      "mesh": 1
    },
    {
      "name": "node3",
      "mesh": 2
    },
    {
      "name": "node4",
      "mesh": 3
    }
  ],
  "meshes": [
    {
      "primitives": [
        {
          "attributes": {
            "POSITION": 0,
            "NORMAL": 1,
            "TEXCOORD_0": 2
          },
          "indices": 3,
          "mode": 4,
          "material": 3
        }
      ],
      "name": "part000"
    },
    {
      "primitives": [
        {
          "attributes": {
            "POSITION": 4,
            "NORMAL": 5,
            "TEXCOORD_0": 6
          },
          "indices": 7,
          "mode": 4,
          "material": 1
        }
      ],
      "name": "part001"
    },
    {
      "primitives": [
        {
          "attributes": {
            "POSITION": 8,
            "NORMAL": 9,
            "TEXCOORD_0": 10
          },
          "indices": 11,
          "mode": 4,
          "material": 0
        }
      ],
      "name": "part002"
    },
    {
      "primitives": [
        {
          "attributes": {
            "POSITION": 12,
            "NORMAL": 13,
            "TEXCOORD_0": 14
          },
          "indices": 15,
          "mode": 4,
          "material": 2
        }
      ],
      "name": "part003"
    }
  ],
  "accessors": [
    {
      "bufferView": 1,
      "byteOffset": 0,
      "componentType": 5126,
      "count": 16,
      "type": "VEC3",
      "min": [
        -2.6500000953674316,
        0.0,
        -1.2200000286102295
      ],
      "max": [
        4.978640079498291,
        2.2000000476837158,
        -1.2200000286102295
      ]
    },
    {
      "bufferView": 2,
      "byteOffset": 0,
      "componentType": 5126,
      "count": 16,
      "type": "VEC3"
    },
    {
      "bufferView": 3,
      "byteOffset": 0,
      "componentType": 5126,
      "count": 16,
      "type": "VEC2"
    },
    {
      "bufferView": 0,
      "byteOffset": 0,
      "componentType": 5125,
      "count": 24,
      "type": "SCALAR"
    },
    {
      "bufferView": 1,
      "byteOffset": 192,
      "componentType": 5126,
      "count": 16,
      "type": "VEC3",
      "min": [
        -3.0499999523162842,
        2.5999999046325684,
        -1.5199999809265137
      ],
      "max": [
        5.9499998092651367,
        2.8499999046325684,
        3.0799999237060547
      ]
    },
    {
      "bufferView": 2,
      "byteOffset": 192,
      "componentType": 5126,
      "count": 16,
      "type": "VEC3"
    },
    {
      "bufferView": 3,
      "byteOffset": 128,
      "componentType": 5126,
      "count": 16,
      "type": "VEC2"
    },
    {
      "bufferView": 0,
      "byteOffset": 96,
      "componentType": 5125,
      "count": 24,
      "type": "SCALAR"
    },
    {
      "bufferView": 1,
      "byteOffset": 384,
      "componentType": 5126,
      "count": 32,
      "type": "VEC3",
      "min": [
        -3.0499999523162842,
        0.0,
        -1.2200000286102295
      ],
      "max": [
        5.9499998092651367,
        2.5999999046325684,
        2.7799999713897705
      ]
    },
    {
      "bufferView": 2,
      "byteOffset": 384,
      "componentType": 5126,
      "count": 32,
      "type": "VEC3"
    },
    {
      "bufferView": 3,
      "byteOffset": 256,
      "componentType": 5126,
      "count": 32,
      "type": "VEC2"
    },
    {
      "bufferView": 0,
      "byteOffset": 192,
      "componentType": 5125,
      "count": 90,
      "type": "SCALAR"
    },
    {
      "bufferView": 1,
      "byteOffset": 768,
      "componentType": 5126,
      "count": 8,
      "type": "VEC3",
      "min": [
        -3.0499999523162842,
        2.5999999046325684,
        -1.5199999809265137
      ],
      "max": [
        5.9499998092651367,
        2.8499999046325684,
        3.0799999237060547
      ]
    },
    {
      "bufferView": 2,
      "byteOffset": 768,
      "componentType": 5126,
      "count": 8,
      "type": "VEC3"
    },
    {
      "bufferView": 3,
      "byteOffset": 512,
      "componentType": 5126,
      "count": 8,
      "type": "VEC2"
    },
    {
      "bufferView": 0,
      "byteOffset": 552,
      "componentType": 5125,
      "count": 12,
      "type": "SCALAR"
    }
  ],
  "materials": [
    {
      "name": "material00",
      "pbrMetallicRoughness": {
        "baseColorFactor": [
          1.0,
          1.0,
          1.0,
          1.0
        ],
        "roughnessFactor": 1.0,
        "metallicFactor": 0.0,
        "baseColorTexture": {
          "index": 0
        },
        "metallicRoughnessTexture": {
          "index": 1
        }
      },
      "emissiveFactor": [
        0.0,
        0.0,
        0.0
      ],
      "normalTexture": {
        "index": 2
      },
      "occlusionTexture": {
        "index": 1
      },
      "extensions": {
        "ASOBO_material_day_night_switch": {
          "enabled": true
        }
      }
    },
    {
      "name": "material01",
      "pbrMetallicRoughness": {
        "baseColorFactor": [
          1.0,
          1.0,
          1.0,
          1.0
        ],
        "roughnessFactor": 1.0,
        "metallicFactor": 0.0
      },
      "emissiveFactor": [
        0.0,
        0.0,
        0.0
      ],
      "extensions": {
        "ASOBO_material_day_night_switch": {
          "enabled": true
        }
      }
    },
    {
      "name": "material02",
      "pbrMetallicRoughness": {
        "baseColorFactor": [
          1.0,
          1.0,
          1.0,
          1.0
        ],
        "roughnessFactor": 1.0,
        "metallicFactor": 0.0,
        "baseColorTexture": {
          "index": 3
        },
        "metallicRoughnessTexture": {
          "index": 4
        }
      },
      "emissiveFactor": [
        0.0,
        0.0,
        0.0
      ],
      "normalTexture": {
        "index": 5
      },
      "occlusionTexture": {
        "index": 4
      },
      "extensions": {
        "ASOBO_material_day_night_switch": {
          "enabled": true
        }
      }
    },
    {
      "name": "material03",
      "pbrMetallicRoughness": {
        "baseColorFactor": [
          1.0,
          1.0,
          1.0,
          1.0
        ],
        "roughnessFactor": 1.0,
        "metallicFactor": 0.0,
        "baseColorTexture": {
          "index": 6
        },
        "metallicRoughnessTexture": {
          "index": 7
        }
      },
      "emissiveFactor": [
        0.0,
        0.0,
        0.0
      ],
      "occlusionTexture": {
        "index": 7
      },
      "extensions": {
        "ASOBO_material_day_night_switch": {
          "enabled": true
        }
      }
    }
  ],
  "textures": [
    {
      "source": 0,
      "name": "blue_concrete"
    },
    {
      "source": 1,
      "name": "blue_concrete_comp"
    },
    {
      "source": 2,
      "name": "blue_concrete_norm"
    },
    {
      "source": 3,
      "name": "corrugated_iron_grey"
    },
    {
      "source": 4,
      "name": "corrugated_iron_grey_comp"
    },
    {
      "source": 5,
      "name": "corrugated_iron_grey_norm"
    },
    {
      "source": 6,
      "name": "lahak_signs_and_windows"
    },
    {
      "source": 7,
      "name": "lahak_signs_and_windows_comp"
    }
  ],
  "images": [
    {
      "uri": "blue_concrete.png"
    },
    {
      "uri": "blue_concrete_comp.png"
    },
    {
      "uri": "blue_concrete_norm.png"
    },
    {
      "uri": "corrugated_iron_grey.png"
    },
    {
      "uri": "corrugated_iron_grey_comp.png"
    },
    {
      "uri": "corrugated_iron_grey_norm.png"
    },
    {
      "uri": "lahak_signs_and_windows.png"
    },
    {
      "uri": "lahak_signs_and_windows_comp.png"
    }
  ],
  "bufferViews": [
    {
      "buffer": 0,
      "byteOffset": 0,
      "byteLength": 600
    },
    {
      "buffer": 0,
      "byteOffset": 600,
      "byteLength": 864,
      "byteStride": 12
    },
    {
      "buffer": 0,
      "byteOffset": 1464,
      "byteLength": 864,
      "byteStride": 12
    },
    {
      "buffer": 0,
      "byteOffset": 2328,
      "byteLength": 576,
      "byteStride": 8
    }
  ],
  "buffers": [
    {
      "byteLength": 2904,
      "uri": "Lahak2.bin"
    }
  ]
}