{
  "asset": {
    "version": "2.0",
    "generator": "ModelConverterX"
  },
  "extensionsUsed": [
    "ASOBO_material_day_night_switch"
  ],
  "scene": 0,
  "scenes": [
    {
      "nodes": [
        0
      ]
    }
  ],
  "nodes": [
    {
      "name": "node0",
      "children": [
        1,
        2,
        3,
        4,
        5,
        6
      ]
    },
    {
      "name": "node1",
      "mesh": 0
    },
    {
      "name": "node2",
      "mesh": 1
    },
    {
      "name": "node3",
      "mesh": 2
    },
    {
      "name": "node4",
      "mesh": 3
    },
    {
      "name": "node5",
      "mesh": 4
    },
    {
      "name": "node6",
      "mesh": 5
    }
  ],
  "meshes": [
    {
      "primitives": [
        {
          "attributes": {
            "POSITION": 0,
            "NORMAL": 1,
            "TEXCOORD_0": 2
          },
          "indices": 3,
          "mode": 4,
          "material": 3
        }
      ],
      "name": "part000"
    },
    {
      "primitives": [
        {
          "attributes": {
            "POSITION": 4,
            "NORMAL": 5,
            "TEXCOORD_0": 6
          },
          "indices": 7,
          "mode": 4,
          "material": 5
        }
      ],
      "name": "part001"
    },
    {
      "primitives": [
        {
          "attributes": {
            "POSITION": 8,
            "NORMAL": 9,
            "TEXCOORD_0": 10
          },
          "indices": 11,
          "mode": 4,
          "material": 4
        }
      ],
      "name": "part002"
    },
    {
      "primitives": [
        {
          "attributes": {
            "POSITION": 12,
            "NORMAL": 13,
            "TEXCOORD_0": 14
          },
          "indices": 15,
          "mode": 4,
          "material": 1
        }
      ],
      "name": "part003"
    },
    {
      "primitives": [
        {
          "attributes": {
            "POSITION": 16,
            "NORMAL": 17,
            "TEXCOORD_0": 18
          },
          "indices": 19,
          "mode": 4,
          "material": 0
        }
      ],
      "name": "part004"
    },
    {
      "primitives": [
        {
          "attributes": {
            "POSITION": 20,
            "NORMAL": 21,
            "TEXCOORD_0": 22
          },
          "indices": 23,
          "mode": 4,
          "material": 2
        }
      ],
      "name": "part005"
    }
  ],
  "accessors": [
    {
      "bufferView": 1,
      "byteOffset": 0,
      "componentType": 5126,
      "count": 249,
      "type": "VEC3",
      "min": [
        -3.9600000381469727,
        -2.3522000312805176,
        -9.4159698486328125
      ],
      "max": [
        4.3124098777771,
        2.6719999313354492,
        5.4600000381469727
      ]
    },
    {
      "bufferView": 2,
      "byteOffset": 0,
      "componentType": 5126,
      "count": 249,
      "type": "VEC3"
    },
    {
      "bufferView": 3,
      "byteOffset": 0,
      "componentType": 5126,
      "count": 249,
      "type": "VEC2"
    },
    {
      "bufferView": 0,
      "byteOffset": 0,
      "componentType": 5125,
      "count": 441,
      "type": "SCALAR"
    },
    {
      "bufferView": 1,
      "byteOffset": 2988,
      "componentType": 5126,
      "count": 4631,
      "type": "VEC3",
      "min": [
        -6.5560002326965332,
        -3.0039799213409424,
        -9.4186201095581055
      ],
      "max": [
        6.6279997825622559,
        2.940000057220459,
        9.8159999847412109
      ]
    },
    {
      "bufferView": 2,
      "byteOffset": 2988,
      "componentType": 5126,
      "count": 4631,
      "type": "VEC3"
    },
    {
      "bufferView": 3,
      "byteOffset": 1992,
      "componentType": 5126,
      "count": 4631,
      "type": "VEC2"
    },
    {
      "bufferView": 0,
      "byteOffset": 1764,
      "componentType": 5125,
      "count": 11241,
      "type": "SCALAR"
    },
    {
      "bufferView": 1,
      "byteOffset": 58560,
      "componentType": 5126,
      "count": 26,
      "type": "VEC3",
      "min": [
        -1.9119999408721924,
        2.6040000915527344,
        -8.9320001602172852
      ],
      "max": [
        1.9720000028610229,
        2.6960000991821289,
        -8.86400032043457
      ]
    },
    {
      "bufferView": 2,
      "byteOffset": 58560,
      "componentType": 5126,
      "count": 26,
      "type": "VEC3"
    },
    {
      "bufferView": 3,
      "byteOffset": 39040,
      "componentType": 5126,
      "count": 26,
      "type": "VEC2"
    },
    {
      "bufferView": 0,
      "byteOffset": 46728,
      "componentType": 5125,
      "count": 108,
      "type": "SCALAR"
    },
    {
      "bufferView": 1,
      "byteOffset": 58872,
      "componentType": 5126,
      "count": 8,
      "type": "VEC3",
      "min": [
        -0.039999999105930328,
        0.45199999213218689,
        5.320000171661377
      ],
      "max": [
        0.1080000028014183,
        0.65200001001358032,
        5.4279999732971191
      ]
    },
    {
      "bufferView": 2,
      "byteOffset": 58872,
      "componentType": 5126,
      "count": 8,
      "type": "VEC3"
    },
    {
      "bufferView": 3,
      "byteOffset": 39248,
      "componentType": 5126,
      "count": 8,
      "type": "VEC2"
    },
    {
      "bufferView": 0,
      "byteOffset": 47160,
      "componentType": 5125,
      "count": 12,
      "type": "SCALAR"
    },
    {
      "bufferView": 1,
      "byteOffset": 58968,
      "componentType": 5126,
      "count": 13,
      "type": "VEC3",
      "min": [
        -1.8960000276565552,
        2.440000057220459,
        -8.8959999084472656
      ],
      "max": [
        -1.843999981880188,
        2.5,
        -8.85200023651123
      ]
    },
    {
      "bufferView": 2,
      "byteOffset": 58968,
      "componentType": 5126,
      "count": 13,
      "type": "VEC3"
    },
    {
      "bufferView": 3,
      "byteOffset": 39312,
      "componentType": 5126,
      "count": 13,
      "type": "VEC2"
    },
    {
      "bufferView": 0,
      "byteOffset": 47208,
      "componentType": 5125,
      "count": 54,
      "type": "SCALAR"
    },
    {
      "bufferView": 1,
      "byteOffset": 59124,
      "componentType": 5126,
      "count": 31,
      "type": "VEC3",
      "min": [
        -0.083999998867511749,
        -2.1359999179840088,
        -8.8959999084472656
      ],
      "max": [
        1.9600000381469727,
        2.5039999485015869,
        3.4960000514984131
      ]
    },
    {
      "bufferView": 2,
      "byteOffset": 59124,
      "componentType": 5126,
      "count": 31,
      "type": "VEC3"
    },
    {
      "bufferView": 3,
      "byteOffset": 39416,
      "componentType": 5126,
      "count": 31,
      "type": "VEC2"
    },
    {
      "bufferView": 0,
      "byteOffset": 47424,
      "componentType": 5125,
      "count": 102,
      "type": "SCALAR"
    }
  ],
  "materials": [
    {
      "name": "material00",
      "pbrMetallicRoughness": {
        "baseColorFactor": [
          0.6,
          0.0,
          0.0,
          0.2
        ],
        "roughnessFactor": 1.0,
        "metallicFactor": 0.0
      },
      "emissiveFactor": [
        0.0,
        0.0,
        0.0
      ],
      "alphaMode": "BLEND",
      "extensions": {
        "ASOBO_material_day_night_switch": {
          "enabled": true
        }
      }
    },
    {
      "name": "material01",
      "pbrMetallicRoughness": {
        "baseColorFactor": [
          0.501961,
          0.6,
          0.501961,
          0.2
        ],
        "roughnessFactor": 1.0,
        "metallicFactor": 0.0
      },
      "emissiveFactor": [
        0.0,
        0.0,
        0.0
      ],
      "alphaMode": "BLEND",
      "extensions": {
        "ASOBO_material_day_night_switch": {
          "enabled": true
        }
      }
    },
    {
      "name": "material02",
      "pbrMetallicRoughness": {
        "baseColorFactor": [
          1.0,
          1.0,
          1.0,
          0.2
        ],
        "roughnessFactor": 1.0,
        "metallicFactor": 0.0
      },
      "emissiveFactor": [
        0.0,
        0.0,
        0.0
      ],
      "alphaMode": "BLEND",
      "extensions": {
        "ASOBO_material_day_night_switch": {
          "enabled": true
        }
      }
    },
    {
      "name": "material03",
      "pbrMetallicRoughness": {
        "baseColorFactor": [
          0.698039,
          0.698039,
          0.698039,
          1.0
        ],
        "roughnessFactor": 1.0,
        "metallicFactor": 0.0
      },
      "emissiveFactor": [
        0.0,
        0.0,
        0.0
      ],
      "extensions": {
        "ASOBO_material_day_night_switch": {
          "enabled": true
        }
      }
    },
    {
      "name": "material04",
      "pbrMetallicRoughness": {
        "baseColorFactor": [
          1.0,
          1.0,
          1.0,
          1.0
        ],
        "roughnessFactor": 1.0,
        "metallicFactor": 0.0
      },
      "emissiveFactor": [
        0.0,
        0.0,
        0.0
      ],
      "extensions": {
        "ASOBO_material_day_night_switch": {
          "enabled": true
        }
      }
    },
    {
      "name": "material05",
      "pbrMetallicRoughness": {
        "baseColorFactor": [
          1.0,
          1.0,
          1.0,
          1.0
        ],
        "roughnessFactor": 1.0,
        "metallicFactor": 0.0,
        "baseColorTexture": {
          "index": 0
        }
      },
      "emissiveFactor": [
        0.0,
        0.0,
        0.0
      ],
      "extensions": {
        "ASOBO_material_day_night_switch": {
          "enabled": true
        }
      }
    }
  ],
  "textures": [
    {
      "source": 0,
      "name": "nbai_f15_eagle_t"
    }
  ],
  "images": [
    {
      "uri": "nbai_f15_eagle_t.png"
    }
  ],
  "bufferViews": [
    {
      "buffer": 0,
      "byteOffset": 0,
      "byteLength": 47832
    },
    {
      "buffer": 0,
      "byteOffset": 47832,
      "byteLength": 59496,
      "byteStride": 12
    },
    {
      "buffer": 0,
      "byteOffset": 107328,
      "byteLength": 59496,
      "byteStride": 12
    },
    {
      "buffer": 0,
      "byteOffset": 166824,
      "byteLength": 39664,
      "byteStride": 8
    }
  ],
  "buffers": [
    {
      "byteLength": 206488,
      "uri": "nbai_f15d_eagle_LOD0.bin"
    }
  ]
}