{
  "asset": {
    "version": "2.0",
    "generator": "ModelConverterX"
  },
  "extensionsUsed": [
    "ASOBO_material_day_night_switch"
  ],
  "scene": 0,
  "scenes": [
    {
      "nodes": [
        0
      ]
    }
  ],
  "nodes": [
    {
      "name": "node0",
      "children": [
        1,
        2,
        3
      ]
    },
    {
      "name": "node1",
      "mesh": 0
    },
    {
      "name": "node2",
      "mesh": 1
    },
    {
      "name": "node3",
      "mesh": 2
    }
  ],
  "meshes": [
    {
      "primitives": [
        {
          "attributes": {
            "POSITION": 0,
            "NORMAL": 1,
            "TEXCOORD_0": 2
          },
          "indices": 3,
          "mode": 4,
          "material": 2
        }
      ],
      "name": "part000"
    },
    {
      "primitives": [
        {
          "attributes": {
            "POSITION": 4,
            "NORMAL": 5,
            "TEXCOORD_0": 6
          },
          "indices": 7,
          "mode": 4,
          "material": 0
        }
      ],
      "name": "part001"
    },
    {
      "primitives": [
        {
          "attributes": {
            "POSITION": 8,
            "NORMAL": 9,
            "TEXCOORD_0": 10
          },
          "indices": 11,
          "mode": 4,
          "material": 1
        }
      ],
      "name": "part002"
    }
  ],
  "accessors": [
    {
      "bufferView": 1,
      "byteOffset": 0,
      "componentType": 5126,
      "count": 44,
      "type": "VEC3",
      "min": [
        -4.0596751797099349E-15,
        3.5590400695800781,
        1.820870041847229
      ],
      "max": [
        -2.2298489090582239E-16,
        4.5590400695800781,
        33.150859832763672
      ]
    },
    {
      "bufferView": 2,
      "byteOffset": 0,
      "componentType": 5126,
      "count": 44,
      "type": "VEC3"
    },
    {
      "bufferView": 3,
      "byteOffset": 0,
      "componentType": 5126,
      "count": 44,
      "type": "VEC2"
    },
    {
      "bufferView": 0,
      "byteOffset": 0,
      "componentType": 5125,
      "count": 66,
      "type": "SCALAR"
    },
    {
      "bufferView": 1,
      "byteOffset": 528,
      "componentType": 5126,
      "count": 44,
      "type": "VEC3",
      "min": [
        -9.8540000915527344,
        0.0,
        -1.2067270764926151E-15
      ],
      "max": [
        -0.05000000074505806,
        6.71999979019165,
        34.88800048828125
      ]
    },
    {
      "bufferView": 2,
      "byteOffset": 528,
      "componentType": 5126,
      "count": 44,
      "type": "VEC3"
    },
    {
      "bufferView": 3,
      "byteOffset": 352,
      "componentType": 5126,
      "count": 44,
      "type": "VEC2"
    },
    {
      "bufferView": 0,
      "byteOffset": 264,
      "componentType": 5125,
      "count": 66,
      "type": "SCALAR"
    },
    {
      "bufferView": 1,
      "byteOffset": 1056,
      "componentType": 5126,
      "count": 4,
      "type": "VEC3",
      "min": [
        -9.8540000915527344,
        6.71999979019165,
        -1.2067270764926151E-15
      ],
      "max": [
        -0.05000000074505806,
        6.71999979019165,
        34.88800048828125
      ]
    },
    {
      "bufferView": 2,
      "byteOffset": 1056,
      "componentType": 5126,
      "count": 4,
      "type": "VEC3"
    },
    {
      "bufferView": 3,
      "byteOffset": 704,
      "componentType": 5126,
      "count": 4,
      "type": "VEC2"
    },
    {
      "bufferView": 0,
      "byteOffset": 528,
      "componentType": 5125,
      "count": 6,
      "type": "SCALAR"
    }
  ],
  "materials": [
    {
      "name": "TECHNIENTRYBLDG2_MATERIAL_14",
      "pbrMetallicRoughness": {
        "baseColorFactor": [
          1.0,
          1.0,
          1.0,
          1.0
        ],
        "roughnessFactor": 1.0,
        "metallicFactor": 1.0,
        "baseColorTexture": {
          "index": 0
        }
      },
      "emissiveFactor": [
        0.0,
        0.0,
        0.0
      ],
      "extensions": {
        "ASOBO_material_day_night_switch": {
          "enabled": true
        }
      }
    },
    {
      "name": "TECHNIENTRYBLDG2_MATERIAL_15",
      "pbrMetallicRoughness": {
        "baseColorFactor": [
          1.0,
          1.0,
          1.0,
          1.0
        ],
        "roughnessFactor": 1.0,
        "metallicFactor": 1.0,
        "baseColorTexture": {
          "index": 1
        }
      },
      "emissiveFactor": [
        0.0,
        0.0,
        0.0
      ],
      "extensions": {
        "ASOBO_material_day_night_switch": {
          "enabled": true
        }
      }
    },
    {
      "name": "TECHNIENTRYBLDG2_MATERIAL_16",
      "pbrMetallicRoughness": {
        "baseColorFactor": [
          1.0,
          1.0,
          1.0,
          1.0
        ],
        "roughnessFactor": 1.0,
        "metallicFactor": 1.0,
        "baseColorTexture": {
          "index": 2
        }
      },
      "emissiveFactor": [
        0.0,
        0.0,
        0.0
      ],
      "extensions": {
        "ASOBO_material_day_night_switch": {
          "enabled": true
        }
      }
    }
  ],
  "textures": [
    {
      "source": 0,
      "name": "technientrybldg2_material_14"
    },
    {
      "source": 1,
      "name": "technientrybldg2_material_15"
    },
    {
      "source": 2,
      "name": "technientrybldg2_material_16"
    }
  ],
  "images": [
    {
      "uri": "technientrybldg2_material_14.png"
    },
    {
      "uri": "technientrybldg2_material_15.png"
    },
    {
      "uri": "technientrybldg2_material_16.png"
    }
  ],
  "bufferViews": [
    {
      "buffer": 0,
      "byteOffset": 0,
      "byteLength": 552
    },
    {
      "buffer": 0,
      "byteOffset": 552,
      "byteLength": 1104,
      "byteStride": 12
    },
    {
      "buffer": 0,
      "byteOffset": 1656,
      "byteLength": 1104,
      "byteStride": 12
    },
    {
      "buffer": 0,
      "byteOffset": 2760,
      "byteLength": 736,
      "byteStride": 8
    }
  ],
  "buffers": [
    {
      "byteLength": 3496,
      "uri": "techniEntryBldg2.bin"
    }
  ]
}